# xmcd
#
# Track frame offsets: 
#        150
#        11309
#        21379
#        31286
#        38951
#        52066
#        60363
#        72665
#        85611
#        94294
#        106741
#        116724
#        128827
#        137793
#        146176
#        158166
#        166621
#        179225
#        191651
#        201402
#
# Disc length: 2838 seconds
#
# Revision: 2
# Processed by: cddbd v1.5.2PL0 Copyright (c) Steve Scherf et al.
# Submitted via: ExactAudioCopy v1.0b3
#
DISCID=220b1414
DTITLE=Lewis, Jerry Lee - The Essential Jerry Lee Lewis - The Legendar
DTITLE=y Sun Recordings [Disc 2]
DYEAR=2005
DGENRE=Rock 'n' Roll
TTITLE0=What'd I Say
TTITLE1=Down The Line
TTITLE2=Good Golly Miss Molly
TTITLE3=Big Blon' Baby
TTITLE4=Sweet Little Sixteen
TTITLE5=Sixty Minute Man
TTITLE6=Breathless
TTITLE7=Fools Like Me
TTITLE8=Wild One (Real Wild Child)
TTITLE9=It'll Be Me
TTITLE10=Milkshake Mademoiselle
TTITLE11=Good Rockin' Tonight
TTITLE12=Jambalaya
TTITLE13=You Can't Help It (I Can't Help It)
TTITLE14=Break Up
TTITLE15=Lovin' Up A Storm
TTITLE16=Wild Side Of Life
TTITLE17=Deep Elem Blues
TTITLE18=I'm The Guilty One
TTITLE19=The Return Of Jerry Lee
EXTD=YEAR: 2005
EXTT0=
EXTT1=
EXTT2=
EXTT3=
EXTT4=
EXTT5=
EXTT6=
EXTT7=
EXTT8=
EXTT9=
EXTT10=
EXTT11=
EXTT12=
EXTT13=
EXTT14=
EXTT15=
EXTT16=
EXTT17=
EXTT18=
EXTT19=
PLAYORDER=
